<svg width="681" height="336" viewBox="0 0 681 336" fill="none" xmlns="http://www.w3.org/2000/svg">
<g clip-path="url(#clip0_0_1)">
<rect width="681" height="336" fill="white"/>
<g filter="url(#filter0_d_0_1)">
<path fill-rule="evenodd" clip-rule="evenodd" d="M80 171.944C80 202.004 80.2011 213.211 80.7569 214.103C82.3384 216.643 82.6092 216.674 102.797 216.693C124.353 216.713 124.264 216.728 125.642 212.794C126.067 211.581 126.568 210.588 126.756 210.588C126.943 210.588 131.364 214.167 136.578 218.541C146.642 226.983 151.72 230.641 173.306 244.997L186.845 254L197.366 253.999L207.888 253.999L205.238 252.877C201.806 251.424 183.64 239.723 165.91 227.543C156.682 221.205 148.371 214.878 141.504 208.963C135.776 204.03 131.009 199.79 130.909 199.541C130.81 199.291 132.366 194.224 134.367 188.28C138.095 177.205 143.677 158.494 145.103 152.288L145.903 148.81H163.07H180.237L176.162 153.402C168.828 161.665 165.249 168.737 165.273 174.917C165.305 183.086 170.634 187.36 182.351 188.611C190.089 189.438 198.655 186.529 205.467 180.761C207.783 178.8 210.106 177.195 210.628 177.195C211.15 177.195 213.783 176.439 216.48 175.515L221.384 173.836L226.026 177.357C228.579 179.293 237.111 185.364 244.986 190.847C272.35 209.899 282.304 217.837 285.318 223.01C287.77 227.217 287.239 229.57 283.341 231.768C279.063 234.179 279.048 234.17 260.42 218.116C251.012 210.007 242.757 203.117 242.077 202.806C239.974 201.843 238.131 202.173 236.149 203.867C234.846 204.981 234.247 206.049 234.247 207.26C234.247 209.297 235.595 210.6 255.605 227.906C267.152 237.892 268.166 238.925 267.487 240.01C266.448 241.67 262.119 243.425 259.065 243.425C255.614 243.425 252.49 241.197 237.775 228.241C231.36 222.593 225.432 217.669 224.601 217.3C223.487 216.806 222.567 216.786 221.096 217.224C218.429 218.018 217.371 219.337 217.346 221.894C217.327 223.882 217.981 224.606 227.651 233.304C233.329 238.411 239.525 243.826 241.417 245.336C244.737 247.984 244.826 248.131 243.929 249.497C242.524 251.639 238.969 253.443 236.157 253.443C233.995 253.443 233.066 252.933 228.316 249.13C225.353 246.757 218.226 240.746 212.479 235.769C203.41 227.916 201.763 226.722 200.004 226.725C196.038 226.732 193.217 230.138 194.6 233.249C194.915 233.958 200.201 238.917 206.345 244.269L217.518 254H235.97C247.982 254 254.423 253.804 254.423 253.437C254.423 253.096 255.408 253.008 256.925 253.216C260.021 253.639 265.73 252.668 269.12 251.143C272.168 249.77 276.312 246.493 277.552 244.474C278.219 243.389 279.14 242.924 281.174 242.646C285.963 241.991 290.081 240.092 293.356 237.028C296.821 233.787 298.026 231.116 298.034 226.664L298.04 223.667L302.044 221.441C304.247 220.217 306.278 219.136 306.558 219.04C306.838 218.943 307.4 219.922 307.807 221.215C308.215 222.508 309.38 224.277 310.397 225.147L312.247 226.729H331.221H350.195L352.098 225.102L354 223.475V178.118C354 153.171 353.822 132.365 353.605 131.88C353.257 131.104 350.869 131 333.462 131C316.266 131 312.806 131.147 306.685 132.142C293.328 134.312 278.826 138.171 276.194 140.257C275.068 141.15 274.599 142.113 274.599 143.534C274.599 145.364 274.466 145.511 273.134 145.159C270.737 144.527 256.705 139.686 246.938 136.123C232.687 130.924 233.081 131 220.394 131.001C209.344 131.001 209.135 131.023 205.139 132.64C202.911 133.541 199.339 135.294 197.202 136.536L193.316 138.792H170.514H147.711L148.106 136.327C148.324 134.971 148.313 133.218 148.082 132.431L147.662 131L129.288 131.076C119.183 131.117 111.647 131.252 112.542 131.376C119.757 132.369 128.866 134.005 132.456 134.953L136.777 136.095L136.338 138.974C134.604 150.347 126.386 178.103 117.976 200.988L115.675 207.249H103.695H91.715V169.124V131H85.8575H80V171.944ZM342.285 177.751V216.71H330.299H318.312L314.588 207.11C306.947 187.414 296.794 163.76 290.913 151.953C289.41 148.938 288.274 146.397 288.386 146.308C289.003 145.817 298.326 143.674 304.995 142.49C315.896 140.555 329.572 139.107 339.194 138.869L342.285 138.792V177.751ZM226.522 140.15C228.895 140.58 235.712 142.699 241.672 144.859C253.704 149.221 268.246 154.187 276.297 156.683C282.407 158.578 281.342 157.187 287.734 171.618C291.717 180.611 294.677 187.655 301.743 204.956C303.134 208.359 303.266 209.142 302.515 209.519C302.016 209.769 299.742 211.057 297.461 212.38L293.314 214.786L284.119 206.972C279.062 202.675 270.273 195.907 264.587 191.933C242.296 176.351 234.431 170.748 230.993 167.999C226.375 164.307 224.556 163.281 222.629 163.281C221.768 163.281 218.388 164.258 215.117 165.453C211.847 166.648 207.799 167.801 206.123 168.016C203.392 168.366 202.656 168.811 199.064 172.266C194.072 177.07 190.237 178.865 184.968 178.863C182.688 178.863 180.307 178.479 178.926 177.889C176.766 176.965 176.654 176.777 176.757 174.239C176.985 168.634 183.3 160.012 192.771 152.377C201.89 145.027 207.758 141.7 214.235 140.208C218.624 139.198 221.2 139.185 226.522 140.15Z" fill="url(#paint0_linear_0_1)" shape-rendering="crispEdges"/>
<path fill-rule="evenodd" clip-rule="evenodd" d="M80 171.944C80 202.004 80.2011 213.211 80.7569 214.103C82.3384 216.643 82.6092 216.674 102.797 216.693C124.353 216.713 124.264 216.728 125.642 212.794C126.067 211.581 126.568 210.588 126.756 210.588C126.943 210.588 131.364 214.167 136.578 218.541C146.642 226.983 151.72 230.641 173.306 244.997L186.845 254L197.366 253.999L207.888 253.999L205.238 252.877C201.806 251.424 183.64 239.723 165.91 227.543C156.682 221.205 148.371 214.878 141.504 208.963C135.776 204.03 131.009 199.79 130.909 199.541C130.81 199.291 132.366 194.224 134.367 188.28C138.095 177.205 143.677 158.494 145.103 152.288L145.903 148.81H163.07H180.237L176.162 153.402C168.828 161.665 165.249 168.737 165.273 174.917C165.305 183.086 170.634 187.36 182.351 188.611C190.089 189.438 198.655 186.529 205.467 180.761C207.783 178.8 210.106 177.195 210.628 177.195C211.15 177.195 213.783 176.439 216.48 175.515L221.384 173.836L226.026 177.357C228.579 179.293 237.111 185.364 244.986 190.847C272.35 209.899 282.304 217.837 285.318 223.01C287.77 227.217 287.239 229.57 283.341 231.768C279.063 234.179 279.048 234.17 260.42 218.116C251.012 210.007 242.757 203.117 242.077 202.806C239.974 201.843 238.131 202.173 236.149 203.867C234.846 204.981 234.247 206.049 234.247 207.26C234.247 209.297 235.595 210.6 255.605 227.906C267.152 237.892 268.166 238.925 267.487 240.01C266.448 241.67 262.119 243.425 259.065 243.425C255.614 243.425 252.49 241.197 237.775 228.241C231.36 222.593 225.432 217.669 224.601 217.3C223.487 216.806 222.567 216.786 221.096 217.224C218.429 218.018 217.371 219.337 217.346 221.894C217.327 223.882 217.981 224.606 227.651 233.304C233.329 238.411 239.525 243.826 241.417 245.336C244.737 247.984 244.826 248.131 243.929 249.497C242.524 251.639 238.969 253.443 236.157 253.443C233.995 253.443 233.066 252.933 228.316 249.13C225.353 246.757 218.226 240.746 212.479 235.769C203.41 227.916 201.763 226.722 200.004 226.725C196.038 226.732 193.217 230.138 194.6 233.249C194.915 233.958 200.201 238.917 206.345 244.269L217.518 254H235.97C247.982 254 254.423 253.804 254.423 253.437C254.423 253.096 255.408 253.008 256.925 253.216C260.021 253.639 265.73 252.668 269.12 251.143C272.168 249.77 276.312 246.493 277.552 244.474C278.219 243.389 279.14 242.924 281.174 242.646C285.963 241.991 290.081 240.092 293.356 237.028C296.821 233.787 298.026 231.116 298.034 226.664L298.04 223.667L302.044 221.441C304.247 220.217 306.278 219.136 306.558 219.04C306.838 218.943 307.4 219.922 307.807 221.215C308.215 222.508 309.38 224.277 310.397 225.147L312.247 226.729H331.221H350.195L352.098 225.102L354 223.475V178.118C354 153.171 353.822 132.365 353.605 131.88C353.257 131.104 350.869 131 333.462 131C316.266 131 312.806 131.147 306.685 132.142C293.328 134.312 278.826 138.171 276.194 140.257C275.068 141.15 274.599 142.113 274.599 143.534C274.599 145.364 274.466 145.511 273.134 145.159C270.737 144.527 256.705 139.686 246.938 136.123C232.687 130.924 233.081 131 220.394 131.001C209.344 131.001 209.135 131.023 205.139 132.64C202.911 133.541 199.339 135.294 197.202 136.536L193.316 138.792H170.514H147.711L148.106 136.327C148.324 134.971 148.313 133.218 148.082 132.431L147.662 131L129.288 131.076C119.183 131.117 111.647 131.252 112.542 131.376C119.757 132.369 128.866 134.005 132.456 134.953L136.777 136.095L136.338 138.974C134.604 150.347 126.386 178.103 117.976 200.988L115.675 207.249H103.695H91.715V169.124V131H85.8575H80V171.944ZM342.285 177.751V216.71H330.299H318.312L314.588 207.11C306.947 187.414 296.794 163.76 290.913 151.953C289.41 148.938 288.274 146.397 288.386 146.308C289.003 145.817 298.326 143.674 304.995 142.49C315.896 140.555 329.572 139.107 339.194 138.869L342.285 138.792V177.751ZM226.522 140.15C228.895 140.58 235.712 142.699 241.672 144.859C253.704 149.221 268.246 154.187 276.297 156.683C282.407 158.578 281.342 157.187 287.734 171.618C291.717 180.611 294.677 187.655 301.743 204.956C303.134 208.359 303.266 209.142 302.515 209.519C302.016 209.769 299.742 211.057 297.461 212.38L293.314 214.786L284.119 206.972C279.062 202.675 270.273 195.907 264.587 191.933C242.296 176.351 234.431 170.748 230.993 167.999C226.375 164.307 224.556 163.281 222.629 163.281C221.768 163.281 218.388 164.258 215.117 165.453C211.847 166.648 207.799 167.801 206.123 168.016C203.392 168.366 202.656 168.811 199.064 172.266C194.072 177.07 190.237 178.865 184.968 178.863C182.688 178.863 180.307 178.479 178.926 177.889C176.766 176.965 176.654 176.777 176.757 174.239C176.985 168.634 183.3 160.012 192.771 152.377C201.89 145.027 207.758 141.7 214.235 140.208C218.624 139.198 221.2 139.185 226.522 140.15Z" stroke="black" stroke-linejoin="round" shape-rendering="crispEdges"/>
</g>
<g filter="url(#filter1_d_0_1)">
<path d="M370.068 210V140.182H398.023C403.159 140.182 407.443 140.943 410.875 142.466C414.307 143.989 416.886 146.102 418.614 148.807C420.341 151.489 421.205 154.58 421.205 158.08C421.205 160.807 420.659 163.205 419.568 165.273C418.477 167.318 416.977 169 415.068 170.318C413.182 171.614 411.023 172.534 408.591 173.08V173.761C411.25 173.875 413.739 174.625 416.057 176.011C418.398 177.398 420.295 179.341 421.75 181.841C423.205 184.318 423.932 187.273 423.932 190.705C423.932 194.409 423.011 197.716 421.17 200.625C419.352 203.511 416.659 205.795 413.091 207.477C409.523 209.159 405.125 210 399.898 210H370.068ZM384.83 197.932H396.864C400.977 197.932 403.977 197.148 405.864 195.58C407.75 193.989 408.693 191.875 408.693 189.239C408.693 187.307 408.227 185.602 407.295 184.125C406.364 182.648 405.034 181.489 403.307 180.648C401.602 179.807 399.568 179.386 397.205 179.386H384.83V197.932ZM384.83 169.398H395.773C397.795 169.398 399.591 169.045 401.159 168.341C402.75 167.614 404 166.591 404.909 165.273C405.841 163.955 406.307 162.375 406.307 160.534C406.307 158.011 405.409 155.977 403.614 154.432C401.841 152.886 399.318 152.114 396.045 152.114H384.83V169.398ZM466.844 187.705V157.636H481.366V210H467.423V200.489H466.878C465.696 203.557 463.73 206.023 460.98 207.886C458.253 209.75 454.923 210.682 450.991 210.682C447.491 210.682 444.412 209.886 441.753 208.295C439.094 206.705 437.014 204.443 435.514 201.511C434.037 198.58 433.287 195.068 433.264 190.977V157.636H447.787V188.386C447.81 191.477 448.639 193.92 450.276 195.716C451.912 197.511 454.105 198.409 456.855 198.409C458.605 198.409 460.241 198.011 461.764 197.216C463.287 196.398 464.514 195.193 465.446 193.602C466.401 192.011 466.866 190.045 466.844 187.705ZM492.983 210V157.636H507.062V166.773H507.608C508.563 163.523 510.165 161.068 512.415 159.409C514.665 157.727 517.256 156.886 520.188 156.886C520.915 156.886 521.699 156.932 522.54 157.023C523.381 157.114 524.119 157.239 524.756 157.398V170.284C524.074 170.08 523.131 169.898 521.926 169.739C520.722 169.58 519.619 169.5 518.619 169.5C516.483 169.5 514.574 169.966 512.892 170.898C511.233 171.807 509.915 173.08 508.938 174.716C507.983 176.352 507.506 178.239 507.506 180.375V210H492.983ZM545.696 210.989C542.355 210.989 539.378 210.409 536.764 209.25C534.151 208.068 532.082 206.33 530.56 204.034C529.06 201.716 528.31 198.83 528.31 195.375C528.31 192.466 528.844 190.023 529.912 188.045C530.98 186.068 532.435 184.477 534.276 183.273C536.116 182.068 538.207 181.159 540.548 180.545C542.912 179.932 545.389 179.5 547.98 179.25C551.026 178.932 553.48 178.636 555.344 178.364C557.207 178.068 558.56 177.636 559.401 177.068C560.241 176.5 560.662 175.659 560.662 174.545V174.341C560.662 172.182 559.98 170.511 558.616 169.33C557.276 168.148 555.366 167.557 552.889 167.557C550.276 167.557 548.196 168.136 546.651 169.295C545.105 170.432 544.082 171.864 543.582 173.591L530.151 172.5C530.832 169.318 532.173 166.568 534.173 164.25C536.173 161.909 538.753 160.114 541.912 158.864C545.094 157.591 548.776 156.955 552.957 156.955C555.866 156.955 558.651 157.295 561.31 157.977C563.991 158.659 566.366 159.716 568.435 161.148C570.526 162.58 572.173 164.42 573.378 166.67C574.582 168.898 575.185 171.568 575.185 174.682V210H561.412V202.739H561.003C560.162 204.375 559.037 205.818 557.628 207.068C556.219 208.295 554.526 209.261 552.548 209.966C550.571 210.648 548.287 210.989 545.696 210.989ZM549.855 200.966C551.991 200.966 553.878 200.545 555.514 199.705C557.151 198.841 558.435 197.682 559.366 196.227C560.298 194.773 560.764 193.125 560.764 191.284V185.727C560.31 186.023 559.685 186.295 558.889 186.545C558.116 186.773 557.241 186.989 556.264 187.193C555.287 187.375 554.31 187.545 553.332 187.705C552.355 187.841 551.469 187.966 550.673 188.08C548.969 188.33 547.48 188.727 546.207 189.273C544.935 189.818 543.946 190.557 543.241 191.489C542.537 192.398 542.185 193.534 542.185 194.898C542.185 196.875 542.901 198.386 544.332 199.432C545.787 200.455 547.628 200.966 549.855 200.966ZM600.974 179.727V210H586.452V157.636H600.293V166.875H600.906C602.065 163.83 604.009 161.42 606.736 159.648C609.463 157.852 612.77 156.955 616.656 156.955C620.293 156.955 623.463 157.75 626.168 159.341C628.872 160.932 630.974 163.205 632.474 166.159C633.974 169.091 634.724 172.591 634.724 176.659V210H620.202V179.25C620.224 176.045 619.406 173.545 617.747 171.75C616.088 169.932 613.804 169.023 610.895 169.023C608.94 169.023 607.213 169.443 605.713 170.284C604.236 171.125 603.077 172.352 602.236 173.966C601.418 175.557 600.997 177.477 600.974 179.727ZM536.543 233.091H543.838V257.432C543.838 259.682 543.332 261.636 542.321 263.295C541.321 264.955 539.929 266.233 538.145 267.131C536.361 268.028 534.287 268.477 531.923 268.477C529.821 268.477 527.912 268.108 526.196 267.369C524.491 266.619 523.139 265.483 522.139 263.96C521.139 262.426 520.645 260.5 520.656 258.182H528.003C528.026 259.102 528.213 259.892 528.565 260.551C528.929 261.199 529.423 261.699 530.048 262.051C530.685 262.392 531.435 262.562 532.298 262.562C533.207 262.562 533.974 262.369 534.599 261.983C535.236 261.585 535.719 261.006 536.048 260.244C536.378 259.483 536.543 258.545 536.543 257.432V233.091ZM561.634 268.511C558.986 268.511 556.696 267.949 554.764 266.824C552.844 265.687 551.361 264.108 550.315 262.085C549.27 260.051 548.747 257.693 548.747 255.011C548.747 252.307 549.27 249.943 550.315 247.92C551.361 245.886 552.844 244.307 554.764 243.182C556.696 242.045 558.986 241.477 561.634 241.477C564.281 241.477 566.565 242.045 568.486 243.182C570.418 244.307 571.906 245.886 572.952 247.92C573.997 249.943 574.52 252.307 574.52 255.011C574.52 257.693 573.997 260.051 572.952 262.085C571.906 264.108 570.418 265.687 568.486 266.824C566.565 267.949 564.281 268.511 561.634 268.511ZM561.668 262.886C562.872 262.886 563.878 262.545 564.685 261.864C565.491 261.17 566.099 260.227 566.509 259.034C566.929 257.841 567.139 256.483 567.139 254.96C567.139 253.438 566.929 252.08 566.509 250.886C566.099 249.693 565.491 248.75 564.685 248.057C563.878 247.364 562.872 247.017 561.668 247.017C560.452 247.017 559.429 247.364 558.599 248.057C557.781 248.75 557.162 249.693 556.741 250.886C556.332 252.08 556.128 253.438 556.128 254.96C556.128 256.483 556.332 257.841 556.741 259.034C557.162 260.227 557.781 261.17 558.599 261.864C559.429 262.545 560.452 262.886 561.668 262.886ZM579.378 268V233.091H586.639V246.216H586.861C587.179 245.511 587.639 244.795 588.241 244.068C588.855 243.33 589.651 242.716 590.628 242.227C591.616 241.727 592.844 241.477 594.31 241.477C596.219 241.477 597.98 241.977 599.594 242.977C601.207 243.966 602.497 245.46 603.463 247.46C604.429 249.449 604.912 251.943 604.912 254.943C604.912 257.864 604.44 260.33 603.497 262.341C602.565 264.341 601.293 265.858 599.679 266.892C598.077 267.915 596.281 268.426 594.293 268.426C592.884 268.426 591.685 268.193 590.696 267.727C589.719 267.261 588.918 266.676 588.293 265.972C587.668 265.256 587.19 264.534 586.861 263.807H586.537V268H579.378ZM586.486 254.909C586.486 256.466 586.702 257.824 587.134 258.983C587.565 260.142 588.19 261.045 589.009 261.693C589.827 262.33 590.821 262.648 591.991 262.648C593.173 262.648 594.173 262.324 594.991 261.676C595.81 261.017 596.429 260.108 596.849 258.949C597.281 257.778 597.497 256.432 597.497 254.909C597.497 253.398 597.287 252.068 596.866 250.92C596.446 249.773 595.827 248.875 595.009 248.227C594.19 247.58 593.185 247.256 591.991 247.256C590.81 247.256 589.81 247.568 588.991 248.193C588.185 248.818 587.565 249.705 587.134 250.852C586.702 252 586.486 253.352 586.486 254.909ZM631.541 249.284L624.893 249.693C624.78 249.125 624.536 248.614 624.161 248.159C623.786 247.693 623.291 247.324 622.678 247.051C622.075 246.767 621.354 246.625 620.513 246.625C619.388 246.625 618.439 246.864 617.666 247.341C616.893 247.807 616.507 248.432 616.507 249.216C616.507 249.841 616.757 250.369 617.257 250.801C617.757 251.233 618.615 251.58 619.831 251.841L624.57 252.795C627.115 253.318 629.013 254.159 630.263 255.318C631.513 256.477 632.138 258 632.138 259.886C632.138 261.602 631.632 263.108 630.621 264.403C629.621 265.699 628.246 266.71 626.496 267.438C624.757 268.153 622.751 268.511 620.479 268.511C617.013 268.511 614.251 267.79 612.195 266.347C610.149 264.892 608.95 262.915 608.598 260.415L615.74 260.04C615.956 261.097 616.479 261.903 617.308 262.46C618.138 263.006 619.2 263.278 620.496 263.278C621.768 263.278 622.791 263.034 623.564 262.545C624.348 262.045 624.746 261.403 624.757 260.619C624.746 259.96 624.467 259.42 623.922 259C623.376 258.568 622.536 258.239 621.399 258.011L616.865 257.108C614.308 256.597 612.405 255.71 611.155 254.449C609.916 253.187 609.297 251.58 609.297 249.625C609.297 247.943 609.751 246.494 610.661 245.278C611.581 244.062 612.871 243.125 614.53 242.466C616.2 241.807 618.155 241.477 620.393 241.477C623.7 241.477 626.303 242.176 628.2 243.574C630.109 244.972 631.223 246.875 631.541 249.284Z" fill="black"/>
</g>
<path d="M64.0476 279.222H61.3885C61.2862 278.653 61.0959 278.153 60.8175 277.722C60.5391 277.29 60.1982 276.923 59.7947 276.622C59.3913 276.321 58.9396 276.094 58.4396 275.94C57.9453 275.787 57.4197 275.71 56.8629 275.71C55.8572 275.71 54.9567 275.963 54.1612 276.469C53.3714 276.974 52.7464 277.716 52.2862 278.693C51.8317 279.67 51.6044 280.864 51.6044 282.273C51.6044 283.693 51.8317 284.892 52.2862 285.869C52.7464 286.847 53.3743 287.585 54.1697 288.085C54.9652 288.585 55.8601 288.835 56.8544 288.835C57.4055 288.835 57.9283 288.761 58.4226 288.614C58.9226 288.46 59.3743 288.236 59.7777 287.94C60.1811 287.645 60.522 287.284 60.8004 286.858C61.0845 286.426 61.2805 285.932 61.3885 285.375L64.0476 285.384C63.9055 286.241 63.63 287.031 63.2209 287.753C62.8175 288.469 62.2976 289.088 61.6612 289.611C61.0305 290.128 60.3089 290.528 59.4964 290.812C58.6839 291.097 57.7976 291.239 56.8374 291.239C55.326 291.239 53.9794 290.881 52.7976 290.165C51.6158 289.443 50.6839 288.412 50.0021 287.071C49.326 285.73 48.9879 284.131 48.9879 282.273C48.9879 280.409 49.3288 278.81 50.0107 277.474C50.6925 276.134 51.6243 275.105 52.8061 274.389C53.9879 273.668 55.3317 273.307 56.8374 273.307C57.7635 273.307 58.6271 273.44 59.4283 273.707C60.2351 273.969 60.9595 274.355 61.6016 274.866C62.2436 275.372 62.7749 275.991 63.1953 276.724C63.6158 277.452 63.8999 278.284 64.0476 279.222ZM72.5085 291.264C71.2813 291.264 70.2102 290.983 69.2955 290.42C68.3807 289.858 67.6705 289.071 67.1648 288.06C66.6591 287.048 66.4062 285.866 66.4062 284.514C66.4062 283.156 66.6591 281.969 67.1648 280.952C67.6705 279.935 68.3807 279.145 69.2955 278.582C70.2102 278.02 71.2813 277.739 72.5085 277.739C73.7358 277.739 74.8068 278.02 75.7216 278.582C76.6364 279.145 77.3466 279.935 77.8523 280.952C78.358 281.969 78.6108 283.156 78.6108 284.514C78.6108 285.866 78.358 287.048 77.8523 288.06C77.3466 289.071 76.6364 289.858 75.7216 290.42C74.8068 290.983 73.7358 291.264 72.5085 291.264ZM72.517 289.125C73.3125 289.125 73.9716 288.915 74.4943 288.494C75.017 288.074 75.4034 287.514 75.6534 286.815C75.9091 286.116 76.0369 285.347 76.0369 284.506C76.0369 283.67 75.9091 282.903 75.6534 282.205C75.4034 281.5 75.017 280.935 74.4943 280.509C73.9716 280.082 73.3125 279.869 72.517 279.869C71.7159 279.869 71.0511 280.082 70.5227 280.509C70 280.935 69.6108 281.5 69.3551 282.205C69.1051 282.903 68.9801 283.67 68.9801 284.506C68.9801 285.347 69.1051 286.116 69.3551 286.815C69.6108 287.514 70 288.074 70.5227 288.494C71.0511 288.915 71.7159 289.125 72.517 289.125ZM84.0036 283.227V291H81.4553V277.909H83.9013V280.04H84.0632C84.3643 279.347 84.8359 278.79 85.478 278.369C86.1257 277.949 86.9411 277.739 87.924 277.739C88.8161 277.739 89.5973 277.926 90.2678 278.301C90.9382 278.67 91.4581 279.222 91.8274 279.955C92.1967 280.687 92.3814 281.594 92.3814 282.673V291H89.8331V282.98C89.8331 282.031 89.5859 281.29 89.0916 280.756C88.5973 280.216 87.9183 279.946 87.0547 279.946C86.4638 279.946 85.9382 280.074 85.478 280.33C85.0234 280.585 84.6626 280.96 84.3956 281.455C84.1342 281.943 84.0036 282.534 84.0036 283.227ZM98.3473 283.227V291H95.799V277.909H98.245V280.04H98.407C98.7081 279.347 99.1797 278.79 99.8217 278.369C100.469 277.949 101.285 277.739 102.268 277.739C103.16 277.739 103.941 277.926 104.612 278.301C105.282 278.67 105.802 279.222 106.171 279.955C106.54 280.687 106.725 281.594 106.725 282.673V291H104.177V282.98C104.177 282.031 103.93 281.29 103.435 280.756C102.941 280.216 102.262 279.946 101.398 279.946C100.808 279.946 100.282 280.074 99.8217 280.33C99.3672 280.585 99.0064 280.96 98.7393 281.455C98.478 281.943 98.3473 282.534 98.3473 283.227ZM115.785 291.264C114.495 291.264 113.384 290.989 112.452 290.438C111.526 289.881 110.81 289.099 110.305 288.094C109.805 287.082 109.555 285.898 109.555 284.54C109.555 283.199 109.805 282.017 110.305 280.994C110.81 279.972 111.515 279.173 112.418 278.599C113.327 278.026 114.39 277.739 115.606 277.739C116.344 277.739 117.06 277.861 117.754 278.105C118.447 278.349 119.069 278.733 119.62 279.256C120.171 279.778 120.606 280.457 120.924 281.293C121.242 282.122 121.401 283.131 121.401 284.318V285.222H110.995V283.312H118.904C118.904 282.642 118.768 282.048 118.495 281.531C118.222 281.009 117.839 280.597 117.344 280.295C116.856 279.994 116.282 279.844 115.623 279.844C114.907 279.844 114.282 280.02 113.748 280.372C113.219 280.719 112.81 281.173 112.521 281.736C112.237 282.293 112.094 282.898 112.094 283.551V285.043C112.094 285.918 112.248 286.662 112.555 287.276C112.867 287.889 113.302 288.358 113.859 288.682C114.415 289 115.066 289.159 115.81 289.159C116.293 289.159 116.734 289.091 117.131 288.955C117.529 288.812 117.873 288.602 118.163 288.324C118.452 288.045 118.674 287.702 118.827 287.293L121.239 287.727C121.046 288.437 120.7 289.06 120.2 289.594C119.705 290.122 119.083 290.534 118.333 290.83C117.589 291.119 116.739 291.264 115.785 291.264ZM129.743 291.264C128.476 291.264 127.385 290.977 126.47 290.403C125.561 289.824 124.862 289.026 124.374 288.009C123.885 286.991 123.641 285.827 123.641 284.514C123.641 283.185 123.891 282.011 124.391 280.994C124.891 279.972 125.595 279.173 126.504 278.599C127.413 278.026 128.484 277.739 129.717 277.739C130.712 277.739 131.598 277.923 132.376 278.293C133.155 278.656 133.783 279.168 134.26 279.827C134.743 280.486 135.03 281.256 135.121 282.136H132.641C132.504 281.523 132.192 280.994 131.703 280.551C131.22 280.108 130.572 279.886 129.76 279.886C129.05 279.886 128.428 280.074 127.893 280.449C127.365 280.818 126.953 281.347 126.658 282.034C126.362 282.716 126.214 283.523 126.214 284.455C126.214 285.409 126.359 286.233 126.649 286.926C126.939 287.619 127.348 288.156 127.876 288.537C128.411 288.918 129.038 289.108 129.76 289.108C130.243 289.108 130.68 289.02 131.072 288.844C131.47 288.662 131.803 288.403 132.07 288.068C132.342 287.733 132.533 287.33 132.641 286.858H135.121C135.03 287.705 134.754 288.46 134.294 289.125C133.834 289.79 133.217 290.312 132.445 290.693C131.678 291.074 130.777 291.264 129.743 291.264ZM143.957 277.909V279.955H136.806V277.909H143.957ZM138.724 274.773H141.272V287.156C141.272 287.651 141.346 288.023 141.494 288.273C141.641 288.517 141.832 288.685 142.065 288.776C142.303 288.861 142.562 288.903 142.84 288.903C143.045 288.903 143.224 288.889 143.377 288.861C143.531 288.832 143.65 288.81 143.735 288.793L144.195 290.898C144.048 290.955 143.837 291.011 143.565 291.068C143.292 291.131 142.951 291.165 142.542 291.17C141.871 291.182 141.246 291.062 140.667 290.812C140.087 290.562 139.619 290.176 139.261 289.653C138.903 289.131 138.724 288.474 138.724 287.685V274.773ZM146.776 291V277.909H149.324V291H146.776ZM148.062 275.889C147.619 275.889 147.239 275.741 146.92 275.446C146.608 275.145 146.452 274.787 146.452 274.372C146.452 273.952 146.608 273.594 146.92 273.298C147.239 272.997 147.619 272.847 148.062 272.847C148.506 272.847 148.884 272.997 149.196 273.298C149.514 273.594 149.673 273.952 149.673 274.372C149.673 274.787 149.514 275.145 149.196 275.446C148.884 275.741 148.506 275.889 148.062 275.889ZM155.3 283.227V291H152.752V277.909H155.198V280.04H155.36C155.661 279.347 156.133 278.79 156.775 278.369C157.423 277.949 158.238 277.739 159.221 277.739C160.113 277.739 160.894 277.926 161.565 278.301C162.235 278.67 162.755 279.222 163.124 279.955C163.494 280.687 163.678 281.594 163.678 282.673V291H161.13V282.98C161.13 282.031 160.883 281.29 160.388 280.756C159.894 280.216 159.215 279.946 158.352 279.946C157.761 279.946 157.235 280.074 156.775 280.33C156.32 280.585 155.96 280.96 155.692 281.455C155.431 281.943 155.3 282.534 155.3 283.227ZM172.585 296.182C171.545 296.182 170.65 296.045 169.9 295.773C169.156 295.5 168.548 295.139 168.076 294.69C167.604 294.241 167.252 293.75 167.019 293.216L169.21 292.312C169.363 292.562 169.567 292.827 169.823 293.105C170.085 293.389 170.437 293.631 170.88 293.83C171.329 294.028 171.906 294.128 172.61 294.128C173.576 294.128 174.374 293.892 175.005 293.42C175.636 292.955 175.951 292.21 175.951 291.188V288.614H175.789C175.636 288.892 175.414 289.202 175.124 289.543C174.84 289.884 174.448 290.179 173.948 290.429C173.448 290.679 172.798 290.804 171.996 290.804C170.962 290.804 170.031 290.562 169.201 290.08C168.377 289.591 167.724 288.872 167.241 287.923C166.763 286.969 166.525 285.795 166.525 284.403C166.525 283.011 166.761 281.818 167.232 280.824C167.71 279.83 168.363 279.068 169.192 278.54C170.022 278.006 170.962 277.739 172.013 277.739C172.826 277.739 173.482 277.875 173.982 278.148C174.482 278.415 174.871 278.727 175.15 279.085C175.434 279.443 175.653 279.759 175.806 280.031H175.994V277.909H178.491V291.29C178.491 292.415 178.229 293.338 177.707 294.06C177.184 294.781 176.477 295.315 175.585 295.662C174.698 296.009 173.698 296.182 172.585 296.182ZM172.559 288.69C173.292 288.69 173.911 288.52 174.417 288.179C174.928 287.832 175.315 287.338 175.576 286.696C175.843 286.048 175.977 285.273 175.977 284.369C175.977 283.489 175.846 282.713 175.585 282.043C175.323 281.372 174.94 280.849 174.434 280.474C173.928 280.094 173.303 279.903 172.559 279.903C171.792 279.903 171.153 280.102 170.641 280.5C170.13 280.892 169.744 281.426 169.482 282.102C169.227 282.778 169.099 283.534 169.099 284.369C169.099 285.227 169.229 285.98 169.491 286.628C169.752 287.276 170.138 287.781 170.65 288.145C171.167 288.509 171.803 288.69 172.559 288.69ZM189.871 295.909C189.49 295.909 189.143 295.878 188.831 295.815C188.518 295.759 188.286 295.696 188.132 295.628L188.746 293.54C189.212 293.665 189.626 293.719 189.99 293.702C190.354 293.685 190.675 293.548 190.953 293.293C191.237 293.037 191.487 292.619 191.703 292.04L192.018 291.17L187.229 277.909H189.956L193.271 288.068H193.408L196.723 277.909H199.459L194.064 292.747C193.814 293.429 193.496 294.006 193.109 294.477C192.723 294.955 192.263 295.313 191.729 295.551C191.195 295.79 190.575 295.909 189.871 295.909ZM206.923 291.264C205.695 291.264 204.624 290.983 203.71 290.42C202.795 289.858 202.085 289.071 201.579 288.06C201.073 287.048 200.82 285.866 200.82 284.514C200.82 283.156 201.073 281.969 201.579 280.952C202.085 279.935 202.795 279.145 203.71 278.582C204.624 278.02 205.695 277.739 206.923 277.739C208.15 277.739 209.221 278.02 210.136 278.582C211.05 279.145 211.761 279.935 212.266 280.952C212.772 281.969 213.025 283.156 213.025 284.514C213.025 285.866 212.772 287.048 212.266 288.06C211.761 289.071 211.05 289.858 210.136 290.42C209.221 290.983 208.15 291.264 206.923 291.264ZM206.931 289.125C207.727 289.125 208.386 288.915 208.908 288.494C209.431 288.074 209.817 287.514 210.067 286.815C210.323 286.116 210.451 285.347 210.451 284.506C210.451 283.67 210.323 282.903 210.067 282.205C209.817 281.5 209.431 280.935 208.908 280.509C208.386 280.082 207.727 279.869 206.931 279.869C206.13 279.869 205.465 280.082 204.937 280.509C204.414 280.935 204.025 281.5 203.769 282.205C203.519 282.903 203.394 283.67 203.394 284.506C203.394 285.347 203.519 286.116 203.769 286.815C204.025 287.514 204.414 288.074 204.937 288.494C205.465 288.915 206.13 289.125 206.931 289.125ZM224.162 285.571V277.909H226.719V291H224.213V288.733H224.077C223.776 289.432 223.293 290.014 222.628 290.48C221.969 290.94 221.148 291.17 220.165 291.17C219.324 291.17 218.58 290.986 217.932 290.616C217.29 290.241 216.784 289.688 216.415 288.955C216.051 288.222 215.869 287.315 215.869 286.236V277.909H218.418V285.929C218.418 286.821 218.665 287.531 219.159 288.06C219.653 288.588 220.295 288.852 221.085 288.852C221.563 288.852 222.037 288.733 222.509 288.494C222.986 288.256 223.381 287.895 223.693 287.412C224.011 286.929 224.168 286.315 224.162 285.571ZM242.605 277.909V279.955H235.455V277.909H242.605ZM237.372 274.773H239.92V287.156C239.92 287.651 239.994 288.023 240.142 288.273C240.29 288.517 240.48 288.685 240.713 288.776C240.952 288.861 241.21 288.903 241.489 288.903C241.693 288.903 241.872 288.889 242.026 288.861C242.179 288.832 242.298 288.81 242.384 288.793L242.844 290.898C242.696 290.955 242.486 291.011 242.213 291.068C241.94 291.131 241.599 291.165 241.19 291.17C240.52 291.182 239.895 291.062 239.315 290.812C238.736 290.562 238.267 290.176 237.909 289.653C237.551 289.131 237.372 288.474 237.372 287.685V274.773ZM250.798 291.264C249.57 291.264 248.499 290.983 247.585 290.42C246.67 289.858 245.96 289.071 245.454 288.06C244.948 287.048 244.695 285.866 244.695 284.514C244.695 283.156 244.948 281.969 245.454 280.952C245.96 279.935 246.67 279.145 247.585 278.582C248.499 278.02 249.57 277.739 250.798 277.739C252.025 277.739 253.096 278.02 254.011 278.582C254.925 279.145 255.636 279.935 256.141 280.952C256.647 281.969 256.9 283.156 256.9 284.514C256.9 285.866 256.647 287.048 256.141 288.06C255.636 289.071 254.925 289.858 254.011 290.42C253.096 290.983 252.025 291.264 250.798 291.264ZM250.806 289.125C251.602 289.125 252.261 288.915 252.783 288.494C253.306 288.074 253.692 287.514 253.942 286.815C254.198 286.116 254.326 285.347 254.326 284.506C254.326 283.67 254.198 282.903 253.942 282.205C253.692 281.5 253.306 280.935 252.783 280.509C252.261 280.082 251.602 279.869 250.806 279.869C250.005 279.869 249.34 280.082 248.812 280.509C248.289 280.935 247.9 281.5 247.644 282.205C247.394 282.903 247.269 283.67 247.269 284.506C247.269 285.347 247.394 286.116 247.644 286.815C247.9 287.514 248.289 288.074 248.812 288.494C249.34 288.915 250.005 289.125 250.806 289.125ZM267.707 295.909C267.326 295.909 266.979 295.878 266.667 295.815C266.354 295.759 266.121 295.696 265.968 295.628L266.582 293.54C267.048 293.665 267.462 293.719 267.826 293.702C268.19 293.685 268.511 293.548 268.789 293.293C269.073 293.037 269.323 292.619 269.539 292.04L269.854 291.17L265.065 277.909H267.792L271.107 288.068H271.244L274.559 277.909H277.295L271.9 292.747C271.65 293.429 271.332 294.006 270.945 294.477C270.559 294.955 270.099 295.313 269.565 295.551C269.031 295.79 268.411 295.909 267.707 295.909ZM284.759 291.264C283.531 291.264 282.46 290.983 281.545 290.42C280.631 289.858 279.92 289.071 279.415 288.06C278.909 287.048 278.656 285.866 278.656 284.514C278.656 283.156 278.909 281.969 279.415 280.952C279.92 279.935 280.631 279.145 281.545 278.582C282.46 278.02 283.531 277.739 284.759 277.739C285.986 277.739 287.057 278.02 287.972 278.582C288.886 279.145 289.597 279.935 290.102 280.952C290.608 281.969 290.861 283.156 290.861 284.514C290.861 285.866 290.608 287.048 290.102 288.06C289.597 289.071 288.886 289.858 287.972 290.42C287.057 290.983 285.986 291.264 284.759 291.264ZM284.767 289.125C285.563 289.125 286.222 288.915 286.744 288.494C287.267 288.074 287.653 287.514 287.903 286.815C288.159 286.116 288.287 285.347 288.287 284.506C288.287 283.67 288.159 282.903 287.903 282.205C287.653 281.5 287.267 280.935 286.744 280.509C286.222 280.082 285.563 279.869 284.767 279.869C283.966 279.869 283.301 280.082 282.773 280.509C282.25 280.935 281.861 281.5 281.605 282.205C281.355 282.903 281.23 283.67 281.23 284.506C281.23 285.347 281.355 286.116 281.605 286.815C281.861 287.514 282.25 288.074 282.773 288.494C283.301 288.915 283.966 289.125 284.767 289.125ZM301.998 285.571V277.909H304.555V291H302.049V288.733H301.913C301.612 289.432 301.129 290.014 300.464 290.48C299.805 290.94 298.984 291.17 298.001 291.17C297.16 291.17 296.415 290.986 295.768 290.616C295.126 290.241 294.62 289.688 294.251 288.955C293.887 288.222 293.705 287.315 293.705 286.236V277.909H296.254V285.929C296.254 286.821 296.501 287.531 296.995 288.06C297.489 288.588 298.131 288.852 298.921 288.852C299.398 288.852 299.873 288.733 300.344 288.494C300.822 288.256 301.217 287.895 301.529 287.412C301.847 286.929 302.004 286.315 301.998 285.571ZM307.979 291V277.909H310.442V279.989H310.578C310.817 279.284 311.237 278.73 311.839 278.327C312.447 277.918 313.135 277.713 313.902 277.713C314.061 277.713 314.249 277.719 314.464 277.73C314.686 277.741 314.859 277.756 314.984 277.773V280.21C314.882 280.182 314.7 280.151 314.439 280.116C314.178 280.077 313.916 280.057 313.655 280.057C313.053 280.057 312.516 280.185 312.044 280.44C311.578 280.69 311.209 281.04 310.936 281.489C310.663 281.932 310.527 282.437 310.527 283.006V291H307.979ZM328.442 291.256C327.385 291.256 326.442 290.986 325.612 290.446C324.788 289.901 324.141 289.125 323.669 288.119C323.203 287.108 322.97 285.895 322.97 284.48C322.97 283.065 323.206 281.855 323.678 280.849C324.155 279.844 324.808 279.074 325.638 278.54C326.467 278.006 327.408 277.739 328.459 277.739C329.271 277.739 329.925 277.875 330.419 278.148C330.919 278.415 331.305 278.727 331.578 279.085C331.857 279.443 332.072 279.759 332.226 280.031H332.379V273.545H334.928V291H332.439V288.963H332.226C332.072 289.241 331.851 289.56 331.561 289.918C331.277 290.276 330.885 290.588 330.385 290.855C329.885 291.122 329.237 291.256 328.442 291.256ZM329.004 289.082C329.737 289.082 330.357 288.889 330.862 288.503C331.374 288.111 331.76 287.568 332.021 286.875C332.288 286.182 332.422 285.375 332.422 284.455C332.422 283.545 332.291 282.75 332.03 282.068C331.768 281.386 331.385 280.855 330.879 280.474C330.374 280.094 329.749 279.903 329.004 279.903C328.237 279.903 327.598 280.102 327.087 280.5C326.575 280.898 326.189 281.44 325.928 282.128C325.672 282.815 325.544 283.591 325.544 284.455C325.544 285.33 325.675 286.116 325.936 286.815C326.197 287.514 326.584 288.068 327.095 288.477C327.612 288.881 328.249 289.082 329.004 289.082ZM338.565 291V277.909H341.028V279.989H341.164C341.403 279.284 341.823 278.73 342.425 278.327C343.033 277.918 343.721 277.713 344.488 277.713C344.647 277.713 344.835 277.719 345.05 277.73C345.272 277.741 345.445 277.756 345.57 277.773V280.21C345.468 280.182 345.286 280.151 345.025 280.116C344.763 280.077 344.502 280.057 344.241 280.057C343.638 280.057 343.102 280.185 342.63 280.44C342.164 280.69 341.795 281.04 341.522 281.489C341.249 281.932 341.113 282.437 341.113 283.006V291H338.565ZM352.949 291.264C351.659 291.264 350.548 290.989 349.616 290.438C348.69 289.881 347.974 289.099 347.469 288.094C346.969 287.082 346.719 285.898 346.719 284.54C346.719 283.199 346.969 282.017 347.469 280.994C347.974 279.972 348.679 279.173 349.582 278.599C350.491 278.026 351.554 277.739 352.77 277.739C353.509 277.739 354.224 277.861 354.918 278.105C355.611 278.349 356.233 278.733 356.784 279.256C357.335 279.778 357.77 280.457 358.088 281.293C358.406 282.122 358.565 283.131 358.565 284.318V285.222H348.159V283.312H356.068C356.068 282.642 355.932 282.048 355.659 281.531C355.386 281.009 355.003 280.597 354.509 280.295C354.02 279.994 353.446 279.844 352.787 279.844C352.071 279.844 351.446 280.02 350.912 280.372C350.384 280.719 349.974 281.173 349.685 281.736C349.401 282.293 349.259 282.898 349.259 283.551V285.043C349.259 285.918 349.412 286.662 349.719 287.276C350.031 287.889 350.466 288.358 351.023 288.682C351.58 289 352.23 289.159 352.974 289.159C353.457 289.159 353.898 289.091 354.295 288.955C354.693 288.812 355.037 288.602 355.327 288.324C355.616 288.045 355.838 287.702 355.991 287.293L358.403 287.727C358.21 288.437 357.864 289.06 357.364 289.594C356.869 290.122 356.247 290.534 355.497 290.83C354.753 291.119 353.903 291.264 352.949 291.264ZM365.202 291.29C364.373 291.29 363.623 291.136 362.952 290.83C362.282 290.517 361.751 290.065 361.359 289.474C360.972 288.884 360.779 288.159 360.779 287.301C360.779 286.562 360.921 285.955 361.205 285.477C361.489 285 361.873 284.622 362.356 284.344C362.839 284.065 363.379 283.855 363.975 283.713C364.572 283.571 365.18 283.463 365.799 283.389C366.583 283.298 367.219 283.224 367.708 283.168C368.197 283.105 368.552 283.006 368.773 282.869C368.995 282.733 369.106 282.511 369.106 282.205V282.145C369.106 281.401 368.896 280.824 368.475 280.415C368.06 280.006 367.441 279.801 366.617 279.801C365.759 279.801 365.083 279.991 364.589 280.372C364.1 280.747 363.762 281.165 363.575 281.625L361.18 281.08C361.464 280.284 361.879 279.642 362.424 279.153C362.975 278.659 363.609 278.301 364.325 278.08C365.04 277.852 365.793 277.739 366.583 277.739C367.106 277.739 367.66 277.801 368.245 277.926C368.836 278.045 369.387 278.267 369.898 278.591C370.415 278.915 370.839 279.378 371.168 279.98C371.498 280.577 371.663 281.352 371.663 282.307V291H369.174V289.21H369.072C368.907 289.54 368.66 289.864 368.33 290.182C368.001 290.5 367.577 290.764 367.06 290.974C366.543 291.185 365.924 291.29 365.202 291.29ZM365.756 289.244C366.461 289.244 367.063 289.105 367.563 288.827C368.069 288.548 368.452 288.185 368.714 287.736C368.981 287.281 369.114 286.795 369.114 286.278V284.591C369.023 284.682 368.847 284.767 368.586 284.847C368.33 284.92 368.038 284.986 367.708 285.043C367.379 285.094 367.058 285.142 366.745 285.188C366.433 285.227 366.171 285.261 365.961 285.29C365.467 285.352 365.015 285.457 364.606 285.605C364.202 285.753 363.879 285.966 363.634 286.244C363.396 286.517 363.276 286.881 363.276 287.335C363.276 287.966 363.509 288.443 363.975 288.767C364.441 289.085 365.035 289.244 365.756 289.244ZM375.057 291V277.909H377.503V280.04H377.665C377.938 279.318 378.384 278.756 379.003 278.352C379.622 277.943 380.364 277.739 381.227 277.739C382.102 277.739 382.835 277.943 383.426 278.352C384.023 278.761 384.463 279.324 384.747 280.04H384.884C385.196 279.341 385.693 278.784 386.375 278.369C387.057 277.949 387.869 277.739 388.812 277.739C390 277.739 390.969 278.111 391.719 278.855C392.474 279.599 392.852 280.722 392.852 282.222V291H390.304V282.46C390.304 281.574 390.063 280.932 389.58 280.534C389.097 280.136 388.52 279.938 387.849 279.938C387.02 279.938 386.375 280.193 385.915 280.705C385.455 281.21 385.224 281.861 385.224 282.656V291H382.685V282.298C382.685 281.588 382.463 281.017 382.02 280.585C381.577 280.153 381 279.938 380.29 279.938C379.807 279.938 379.361 280.065 378.952 280.321C378.548 280.571 378.222 280.92 377.972 281.369C377.727 281.818 377.605 282.338 377.605 282.929V291H375.057ZM402.619 277.909H405.168V291.852C405.168 292.727 405.009 293.466 404.69 294.068C404.378 294.67 403.912 295.128 403.293 295.44C402.679 295.753 401.92 295.909 401.017 295.909C400.926 295.909 400.841 295.909 400.761 295.909C400.676 295.909 400.588 295.906 400.497 295.901V293.71C400.577 293.71 400.648 293.71 400.71 293.71C400.767 293.71 400.832 293.71 400.906 293.71C401.509 293.71 401.943 293.548 402.21 293.224C402.483 292.906 402.619 292.443 402.619 291.835V277.909ZM403.881 275.889C403.438 275.889 403.057 275.741 402.739 275.446C402.426 275.145 402.27 274.787 402.27 274.372C402.27 273.952 402.426 273.594 402.739 273.298C403.057 272.997 403.438 272.847 403.881 272.847C404.324 272.847 404.702 272.997 405.014 273.298C405.332 273.594 405.491 273.952 405.491 274.372C405.491 274.787 405.332 275.145 405.014 275.446C404.702 275.741 404.324 275.889 403.881 275.889ZM414.11 291.264C412.883 291.264 411.812 290.983 410.897 290.42C409.982 289.858 409.272 289.071 408.766 288.06C408.261 287.048 408.008 285.866 408.008 284.514C408.008 283.156 408.261 281.969 408.766 280.952C409.272 279.935 409.982 279.145 410.897 278.582C411.812 278.02 412.883 277.739 414.11 277.739C415.337 277.739 416.408 278.02 417.323 278.582C418.238 279.145 418.948 279.935 419.454 280.952C419.96 281.969 420.212 283.156 420.212 284.514C420.212 285.866 419.96 287.048 419.454 288.06C418.948 289.071 418.238 289.858 417.323 290.42C416.408 290.983 415.337 291.264 414.11 291.264ZM414.119 289.125C414.914 289.125 415.573 288.915 416.096 288.494C416.619 288.074 417.005 287.514 417.255 286.815C417.511 286.116 417.638 285.347 417.638 284.506C417.638 283.67 417.511 282.903 417.255 282.205C417.005 281.5 416.619 280.935 416.096 280.509C415.573 280.082 414.914 279.869 414.119 279.869C413.317 279.869 412.653 280.082 412.124 280.509C411.602 280.935 411.212 281.5 410.957 282.205C410.707 282.903 410.582 283.67 410.582 284.506C410.582 285.347 410.707 286.116 410.957 286.815C411.212 287.514 411.602 288.074 412.124 288.494C412.653 288.915 413.317 289.125 414.119 289.125ZM423.261 291V273.545H425.81V280.031H425.963C426.111 279.759 426.324 279.443 426.602 279.085C426.881 278.727 427.267 278.415 427.761 278.148C428.256 277.875 428.909 277.739 429.722 277.739C430.778 277.739 431.722 278.006 432.551 278.54C433.381 279.074 434.031 279.844 434.503 280.849C434.98 281.855 435.219 283.065 435.219 284.48C435.219 285.895 434.983 287.108 434.511 288.119C434.04 289.125 433.392 289.901 432.568 290.446C431.744 290.986 430.804 291.256 429.747 291.256C428.952 291.256 428.301 291.122 427.795 290.855C427.295 290.588 426.903 290.276 426.619 289.918C426.335 289.56 426.116 289.241 425.963 288.963H425.75V291H423.261ZM425.759 284.455C425.759 285.375 425.892 286.182 426.159 286.875C426.426 287.568 426.813 288.111 427.318 288.503C427.824 288.889 428.443 289.082 429.176 289.082C429.938 289.082 430.574 288.881 431.085 288.477C431.597 288.068 431.983 287.514 432.244 286.815C432.511 286.116 432.645 285.33 432.645 284.455C432.645 283.591 432.514 282.815 432.253 282.128C431.997 281.44 431.611 280.898 431.094 280.5C430.582 280.102 429.943 279.903 429.176 279.903C428.438 279.903 427.812 280.094 427.301 280.474C426.795 280.855 426.412 281.386 426.151 282.068C425.889 282.75 425.759 283.545 425.759 284.455Z" fill="black"/>
</g>
<defs>
<filter id="filter0_d_0_1" x="75.5" y="130.5" width="283" height="132" filterUnits="userSpaceOnUse" color-interpolation-filters="sRGB">
<feFlood flood-opacity="0" result="BackgroundImageFix"/>
<feColorMatrix in="SourceAlpha" type="matrix" values="0 0 0 0 0 0 0 0 0 0 0 0 0 0 0 0 0 0 127 0" result="hardAlpha"/>
<feOffset dy="4"/>
<feGaussianBlur stdDeviation="2"/>
<feComposite in2="hardAlpha" operator="out"/>
<feColorMatrix type="matrix" values="0 0 0 0 0 0 0 0 0 0 0 0 0 0 0 0 0 0 0.25 0"/>
<feBlend mode="normal" in2="BackgroundImageFix" result="effect1_dropShadow_0_1"/>
<feBlend mode="normal" in="SourceGraphic" in2="effect1_dropShadow_0_1" result="shape"/>
</filter>
<filter id="filter1_d_0_1" x="366.068" y="140.182" width="272.656" height="136.33" filterUnits="userSpaceOnUse" color-interpolation-filters="sRGB">
<feFlood flood-opacity="0" result="BackgroundImageFix"/>
<feColorMatrix in="SourceAlpha" type="matrix" values="0 0 0 0 0 0 0 0 0 0 0 0 0 0 0 0 0 0 127 0" result="hardAlpha"/>
<feOffset dy="4"/>
<feGaussianBlur stdDeviation="2"/>
<feComposite in2="hardAlpha" operator="out"/>
<feColorMatrix type="matrix" values="0 0 0 0 0 0 0 0 0 0 0 0 0 0 0 0 0 0 0.25 0"/>
<feBlend mode="normal" in2="BackgroundImageFix" result="effect1_dropShadow_0_1"/>
<feBlend mode="normal" in="SourceGraphic" in2="effect1_dropShadow_0_1" result="shape"/>
</filter>
<linearGradient id="paint0_linear_0_1" x1="217" y1="131" x2="217" y2="254" gradientUnits="userSpaceOnUse">
<stop stop-color="#262726"/>
<stop offset="0.9999" stop-color="#262726"/>
<stop offset="1" stop-color="#0DFB24" stop-opacity="0"/>
</linearGradient>
<clipPath id="clip0_0_1">
<rect width="681" height="336" fill="white"/>
</clipPath>
</defs>
</svg>
